{
  "accessors": [
    {
      "bufferView": 2,
      "componentType": 5126,
      "count": 20299,
      "max": [
        1.0753554105758667,
        1.2214425802230835,
        1.0288596153259277
      ],
      "min": [
        -1.0285544395446777,
        -1.1490079164505005,
        -1.0696114301681519
      ],
      "type": "VEC3"
    },
    {
      "bufferView": 2,
      "byteOffset": 243588,
      "componentType": 5126,
      "count": 20299,
      "max": [
        0.9996672868728638,
        0.9999657869338989,
        0.9996395111083984
      ],
      "min": [
        -0.9997920989990234,
        -0.9999891519546509,
        -0.9996535778045654
      ],
      "type": "VEC3"
    },
    {
      "bufferView": 1,
      "componentType": 5126,
      "count": 20299,
      "max": [
        1.000000238418579,
        1.0
      ],
      "min": [
        0.0,
        0.0
      ],
      "type": "VEC2"
    },
    {
      "bufferView": 0,
      "componentType": 5125,
      "count": 118800,
      "type": "SCALAR"
    },
    {
      "bufferView": 2,
      "byteOffset": 487176,
      "componentType": 5126,
      "count": 20299,
      "max": [
        0.9993734955787659,
        1.1560389995574951,
        0.8877821564674377
      ],
      "min": [
        -1.0459340810775757,
        -1.0906224250793457,
        -1.1437151432037354
      ],
      "type": "VEC3"
    },
    {
      "bufferView": 2,
      "byteOffset": 730764,
      "componentType": 5126,
      "count": 20299,
      "max": [
        0.9996471405029297,
        0.9999160766601563,
        0.9998081922531128
      ],
      "min": [
        -0.9998465776443481,
        -0.999925971031189,
        -0.999822735786438
      ],
      "type": "VEC3"
    },
    {
      "bufferView": 1,
      "byteOffset": 162392,
      "componentType": 5126,
      "count": 20299,
      "max": [
        1.000000238418579,
        1.0
      ],
      "min": [
        0.0,
        0.0
      ],
      "type": "VEC2"
    },
    {
      "bufferView": 0,
      "byteOffset": 475200,
      "componentType": 5125,
      "count": 118800,
      "type": "SCALAR"
    },
    {
      "bufferView": 2,
      "byteOffset": 974352,
      "componentType": 5126,
      "count": 20299,
      "max": [
        1.0493007898330688,
        1.2128287553787231,
        0.9761294722557068
      ],
      "min": [
        -1.0466492176055908,
        -0.9458677172660828,
        -1.0135465860366821
      ],
      "type": "VEC3"
    },
    {
      "bufferView": 2,
      "byteOffset": 1217940,
      "componentType": 5126,
      "count": 20299,
      "max": [
        0.9997153282165527,
        0.9999719858169556,
        0.9999183416366577
      ],
      "min": [
        -0.9999393224716187,
        -0.9999980926513672,
        -0.9998018741607666
      ],
      "type": "VEC3"
    },
    {
      "bufferView": 1,
      "byteOffset": 324784,
      "componentType": 5126,
      "count": 20299,
      "max": [
        1.000000238418579,
        1.0
      ],
      "min": [
        0.0,
        0.0
      ],
      "type": "VEC2"
    },
    {
      "bufferView": 0,
      "byteOffset": 950400,
      "componentType": 5125,
      "count": 118800,
      "type": "SCALAR"
    }
  ],
  "asset": {
    "extras": {
      "author": "furret (https://sketchfab.com/ff.ferretti02)",
      "license": "CC-BY-4.0 (http://creativecommons.org/licenses/by/4.0/)",
      "source": "https://sketchfab.com/3d-models/drop-of-water-dcbdc5e8905449ad95a47720e4d3c57c",
      "title": "drop of water"
    },
    "generator": "Sketchfab-12.67.0",
    "version": "2.0"
  },
  "bufferViews": [
    {
      "buffer": 0,
      "byteLength": 1425600,
      "name": "floatBufferViews",
      "target": 34963
    },
    {
      "buffer": 0,
      "byteLength": 487176,
      "byteOffset": 1425600,
      "byteStride": 8,
      "name": "floatBufferViews",
      "target": 34962
    },
    {
      "buffer": 0,
      "byteLength": 1461528,
      "byteOffset": 1912776,
      "byteStride": 12,
      "name": "floatBufferViews",
      "target": 34962
    }
  ],
  "buffers": [
    {
      "byteLength": 3374304,
      "uri": "scene.bin"
    }
  ],
  "extensionsRequired": [
    "KHR_materials_pbrSpecularGlossiness"
  ],
  "extensionsUsed": [
    "KHR_materials_pbrSpecularGlossiness"
  ],
  "materials": [
    {
      "alphaMode": "BLEND",
      "doubleSided": true,
      "extensions": {
        "KHR_materials_pbrSpecularGlossiness": {
          "diffuseFactor": [
            0.0,
            0.0,
            0.0,
            0.6888156854637658
          ],
          "glossinessFactor": 1.0,
          "specularFactor": [
            1.0,
            1.0,
            1.0
          ]
        }
      },
      "name": "Material"
    }
  ],
  "meshes": [
    {
      "name": "Object_0",
      "primitives": [
        {
          "attributes": {
            "NORMAL": 1,
            "POSITION": 0,
            "TEXCOORD_0": 2
          },
          "indices": 3,
          "material": 0,
          "mode": 4
        }
      ]
    },
    {
      "name": "Object_1",
      "primitives": [
        {
          "attributes": {
            "NORMAL": 5,
            "POSITION": 4,
            "TEXCOORD_0": 6
          },
          "indices": 7,
          "material": 0,
          "mode": 4
        }
      ]
    },
    {
      "name": "Object_2",
      "primitives": [
        {
          "attributes": {
            "NORMAL": 9,
            "POSITION": 8,
            "TEXCOORD_0": 10
          },
          "indices": 11,
          "material": 0,
          "mode": 4
        }
      ]
    }
  ],
  "nodes": [
    {
      "children": [
        1
      ],
      "matrix": [
        1.0,
        0.0,
        0.0,
        0.0,
        0.0,
        2.220446049250313e-16,
        -1.0,
        0.0,
        0.0,
        1.0,
        2.220446049250313e-16,
        0.0,
        0.0,
        0.0,
        0.0,
        1.0
      ],
      "name": "Sketchfab_model"
    },
    {
      "children": [
        2
      ],
      "name": "root"
    },
    {
      "children": [
        3,
        5,
        7
      ],
      "matrix": [
        1.0,
        0.0,
        0.0,
        0.0,
        0.0,
        2.220446049250313e-16,
        1.0,
        0.0,
        0.0,
        -1.0,
        2.220446049250313e-16,
        0.0,
        0.0,
        0.0,
        0.0,
        1.0
      ],
      "name": "GLTF_SceneRootNode"
    },
    {
      "children": [
        4
      ],
      "matrix": [
        1.0,
        0.0,
        0.0,
        0.0,
        0.0,
        1.0,
        0.0,
        0.0,
        0.0,
        0.0,
        1.0,
        0.0,
        1.8745872974395752,
        1.2280298471450806,
        -1.21073317527771,
        1.0
      ],
      "name": "Sphere_0"
    },
    {
      "mesh": 0,
      "name": "Object_4"
    },
    {
      "children": [
        6
      ],
      "matrix": [
        0.3860386908054352,
        0.0,
        0.0,
        0.0,
        0.0,
        0.3860386908054352,
        0.0,
        0.0,
        0.0,
        0.0,
        0.3860386908054352,
        0.0,
        0.5618112683296204,
        2.6699581146240234,
        -0.8024060130119324,
        1.0
      ],
      "name": "Sphere.001_1"
    },
    {
      "mesh": 1,
      "name": "Object_6"
    },
    {
      "children": [
        8
      ],
      "matrix": [
        0.26118743419647217,
        0.0,
        0.0,
        0.0,
        0.0,
        0.26118743419647217,
        0.0,
        0.0,
        0.0,
        0.0,
        0.26118743419647217,
        0.0,
        0.661020815372467,
        2.2231318950653076,
        -1.6592718362808228,
        1.0
      ],
      "name": "Sphere.002_2"
    },
    {
      "mesh": 2,
      "name": "Object_8"
    }
  ],
  "scene": 0,
  "scenes": [
    {
      "name": "Sketchfab_Scene",
      "nodes": [
        0
      ]
    }
  ]
}
